<svg width="24" height="24" viewBox="0 0 24 24" fill="none" xmlns="http://www.w3.org/2000/svg">
<path fill-rule="evenodd" clip-rule="evenodd" d="M0.5 12C0.5 18.341 5.659 23.5 12 23.5C18.341 23.5 23.5 18.341 23.5 12C23.5 5.659 18.341 0.5 12 0.5C5.659 0.5 0.5 5.659 0.5 12ZM1.5 12C1.5 6.21 6.21 1.5 12 1.5C17.79 1.5 22.5 6.21 22.5 12C22.5 17.79 17.79 22.5 12 22.5C6.21 22.5 1.5 17.79 1.5 12Z" fill="white"/>
<path d="M20 19.5H4C3.724 19.5 3.5 19.276 3.5 19C3.5 18.724 3.724 18.5 4 18.5H20C20.276 18.5 20.5 18.724 20.5 19C20.5 19.276 20.276 19.5 20 19.5Z" fill="white"/>
<path d="M15 19.5C14.724 19.5 14.5 19.276 14.5 19C14.5 17.622 13.379 16.5 12 16.5C10.621 16.5 9.5 17.622 9.5 19C9.5 19.276 9.276 19.5 9 19.5C8.724 19.5 8.5 19.276 8.5 19C8.5 17.07 10.07 15.5 12 15.5C13.93 15.5 15.5 17.07 15.5 19C15.5 19.276 15.276 19.5 15 19.5Z" fill="white"/>
<path d="M11 16.4998C10.817 16.4998 10.641 16.3988 10.553 16.2238L6.55305 8.22381C6.43005 7.97681 6.52905 7.6758 6.77605 7.5528C7.02405 7.4298 7.32305 7.52881 7.44705 7.7758L11.447 15.7758C11.57 16.0228 11.47 16.3228 11.223 16.4468C11.151 16.4828 11.075 16.4998 11 16.4998Z" fill="white"/>
<path d="M12 4.5C11.724 4.5 11.5 4.276 11.5 4V1C11.5 0.724 11.724 0.5 12 0.5C12.276 0.5 12.5 0.724 12.5 1V4C12.5 4.276 12.276 4.5 12 4.5Z" fill="white"/>
<path d="M6.00005 6.4998C5.81705 6.4998 5.64105 6.3988 5.55305 6.2238L4.55305 4.22381C4.43005 3.97681 4.52905 3.6758 4.77605 3.5528C5.02405 3.4298 5.32305 3.52881 5.44705 3.7758L6.44705 5.7758C6.57005 6.0228 6.47105 6.32381 6.22405 6.44681C6.15105 6.48281 6.07505 6.4998 6.00005 6.4998Z" fill="white"/>
<path d="M8.99999 5.00002C8.80199 5.00002 8.61399 4.88102 8.53599 4.68602L7.53599 2.18602C7.43299 1.93002 7.55699 1.63902 7.81399 1.53602C8.06899 1.43202 8.36099 1.55802 8.46299 1.81502L9.46299 4.31502C9.56599 4.57102 9.44199 4.86202 9.18499 4.96502C9.12499 4.98902 9.06199 5.00002 8.99999 5.00002Z" fill="white"/>
<path d="M4.00001 8.50023C3.87201 8.50023 3.74401 8.45123 3.64601 8.35423L2.14601 6.85423C1.95101 6.65923 1.95101 6.34223 2.14601 6.14723C2.34101 5.95223 2.65801 5.95223 2.85301 6.14723L4.35301 7.64723C4.54801 7.84223 4.54801 8.15923 4.35301 8.35423C4.25601 8.45123 4.12801 8.50023 4.00001 8.50023Z" fill="white"/>
<path d="M2.9999 11.5C2.9039 11.5 2.8079 11.473 2.7229 11.416L1.2229 10.416C0.993896 10.263 0.930896 9.95296 1.0839 9.72296C1.2369 9.49296 1.5489 9.43196 1.7769 9.58396L3.2769 10.584C3.5059 10.737 3.5689 11.047 3.4159 11.277C3.3189 11.422 3.1609 11.5 2.9999 11.5Z" fill="white"/>
<path d="M2.99994 13.9999C2.94694 13.9999 2.89494 13.9919 2.84194 13.9739L1.34194 13.4739C1.07994 13.3869 0.93894 13.1039 1.02594 12.8419C1.11494 12.5799 1.39894 12.4409 1.65894 12.5259L3.15894 13.0259C3.42094 13.1129 3.56194 13.3959 3.47494 13.6579C3.40394 13.8679 3.20894 13.9999 2.99994 13.9999Z" fill="white"/>
<path d="M18.0001 6.4999C17.9251 6.4999 17.8491 6.4829 17.7761 6.4469C17.5291 6.3229 17.4291 6.0229 17.5521 5.7759L18.5521 3.7759C18.6771 3.5279 18.9761 3.4309 19.2231 3.5519C19.4701 3.6759 19.5701 3.9759 19.4471 4.2229L18.4471 6.2229C18.3591 6.3989 18.1831 6.4999 18.0001 6.4999Z" fill="white"/>
<path d="M15 4.99999C14.938 4.99999 14.875 4.98899 14.814 4.96399C14.557 4.86099 14.433 4.56999 14.536 4.31399L15.536 1.81399C15.638 1.55799 15.929 1.43199 16.185 1.53499C16.442 1.63799 16.566 1.92899 16.463 2.18499L15.463 4.68499C15.386 4.88099 15.198 4.99999 15 4.99999Z" fill="white"/>
<path d="M20 8.50023C19.872 8.50023 19.744 8.45123 19.646 8.35423C19.451 8.15923 19.451 7.84223 19.646 7.64723L21.146 6.14723C21.341 5.95223 21.658 5.95223 21.853 6.14723C22.048 6.34223 22.048 6.65923 21.853 6.85423L20.353 8.35423C20.256 8.45123 20.128 8.50023 20 8.50023Z" fill="white"/>
<path d="M20.9999 11.5002C20.8389 11.5002 20.6809 11.4222 20.5839 11.2772C20.4309 11.0472 20.4929 10.7372 20.7229 10.5842L22.2229 9.58417C22.4509 9.43117 22.7619 9.49217 22.9159 9.72317C23.0689 9.95317 23.0069 10.2632 22.7769 10.4162L21.2769 11.4162C21.1919 11.4732 21.0959 11.5002 20.9999 11.5002Z" fill="white"/>
<path d="M21.0001 13.9998C20.7911 13.9998 20.5961 13.8678 20.5251 13.6578C20.4381 13.3958 20.5801 13.1128 20.8411 13.0258L22.3411 12.5258C22.6041 12.4398 22.8861 12.5798 22.9741 12.8418C23.0611 13.1038 22.9191 13.3868 22.6581 13.4738L21.1581 13.9738C21.1051 13.9918 21.0531 13.9998 21.0001 13.9998Z" fill="white"/>
</svg>
