<svg width="24" height="18" viewBox="0 0 24 18" fill="none" xmlns="http://www.w3.org/2000/svg">
<path fill-rule="evenodd" clip-rule="evenodd" d="M14.754 13.342L11.999 12.654L11.795 11.837C12.525 11.091 13.029 10.091 13.197 9.059C13.626 8.905 13.951 8.52 14.011 8.045L14.196 6.567C14.24 6.217 14.132 5.865 13.901 5.6C13.787 5.469 13.648 5.365 13.494 5.293L13.556 4.043L13.799 3.799C14.248 3.322 14.621 2.507 13.853 1.335C13.273 0.449 12.295 0 10.944 0C10.423 0 9.228 0 8.102 0.742C4.856 0.823 4.435 2.428 4.435 3.826C4.435 4.144 4.505 4.81 4.558 5.269C4.386 5.341 4.231 5.45 4.105 5.593C3.869 5.859 3.76 6.214 3.804 6.567L3.989 8.045C4.052 8.553 4.419 8.958 4.892 9.087C5.059 10.076 5.537 11.041 6.222 11.77L6.001 12.654L3.246 13.342C1.334 13.819 0 15.529 0 17.5C0 17.633 0.052 17.761 0.146 17.854C0.24 17.947 0.368 18 0.5 18L17.5 17.998C17.776 17.998 18 17.774 18 17.498C18 15.529 16.666 13.819 14.754 13.342ZM1.038 16.998C1.235 15.706 2.187 14.637 3.489 14.312L6.535 13.551C6.714 13.506 6.855 13.366 6.899 13.187L7.261 11.737C7.306 11.561 7.25 11.375 7.118 11.251C6.395 10.573 5.916 9.578 5.837 8.591C5.816 8.331 5.599 8.131 5.338 8.131H5.218C5.098 8.131 4.996 8.041 4.981 7.922L4.796 6.444C4.784 6.351 4.827 6.286 4.854 6.256C4.881 6.226 4.94 6.175 5.11 6.175C5.254 6.175 5.39 6.114 5.485 6.006C5.58 5.899 5.624 5.755 5.606 5.613C5.559 5.237 5.435 4.182 5.435 3.828C5.435 2.91 5.435 1.769 8.266 1.741C8.368 1.74 8.469 1.708 8.552 1.648C9.348 1.079 10.208 1.002 10.945 1.002C11.937 1.002 12.634 1.299 13.017 1.885C13.455 2.554 13.29 2.883 13.081 3.105L12.712 3.475C12.624 3.563 12.572 3.68 12.566 3.804L12.476 5.654C12.47 5.79 12.519 5.922 12.612 6.021C12.704 6.12 12.834 6.177 12.97 6.178C13.064 6.179 13.122 6.23 13.148 6.26C13.174 6.29 13.216 6.353 13.205 6.445L13.02 7.923C13.005 8.042 12.903 8.132 12.747 8.132C12.486 8.132 12.269 8.332 12.248 8.592C12.167 9.61 11.666 10.624 10.906 11.305C10.768 11.428 10.71 11.618 10.755 11.798L11.102 13.187C11.147 13.366 11.287 13.507 11.466 13.551L14.512 14.312C15.812 14.637 16.764 15.707 16.962 17L1.038 16.998ZM18 12.653L20.755 13.341C22.666 13.819 24 15.529 24 17.498C24 17.774 23.776 17.998 23.5 17.998L19.5 18V17H22.962C22.764 15.707 21.812 14.637 20.512 14.312L17.466 13.551C17.287 13.507 17.147 13.366 17.102 13.187L16.787 11.924C16.752 11.786 16.778 11.641 16.857 11.523C16.936 11.406 17.062 11.327 17.202 11.308C18.375 11.143 19.222 10.873 19.728 10.673C19.231 9.952 18.565 8.464 18.565 5.674C18.565 3.174 18.074 1.739 17.217 1.739H16.847C16.714 1.739 16.587 1.686 16.493 1.593C16.07 1.17 15.89 1.025 15.175 1.005C14.999 1.034 14.813 0.963 14.701 0.805C14.591 0.652 14.574 0.444 14.661 0.277C14.747 0.112 14.914 0.004 15.1 0.004H15.107C16.076 0.018 16.514 0.235 17.05 0.74H17.217C18.775 0.74 19.565 2.4 19.565 5.675C19.565 9.372 20.837 10.444 20.85 10.454C20.977 10.557 21.05 10.719 21.038 10.882C21.026 11.045 20.938 11.195 20.797 11.278C20.753 11.304 19.774 11.873 17.888 12.211L18 12.653Z" fill="white"/>
</svg>
